<svg width="226" height="275" viewBox="0 0 226 275" fill="none" xmlns="http://www.w3.org/2000/svg">
<g clip-path="url(#clip0_902_33)">
<path d="M108.219 27.9769L112.237 12.3608C112.763 10.3514 112.47 8.21508 111.423 6.4213C110.376 4.62751 108.66 3.32296 106.652 2.79423C84.9651 -2.90024 61.9058 0.25157 42.5405 11.5571C23.1753 22.8627 9.08834 41.3971 3.37493 63.088C3.10359 64.0938 3.03537 65.1435 3.17425 66.176C3.31313 67.2084 3.65632 68.2028 4.18378 69.101C4.71123 69.9992 5.41236 70.7832 6.24618 71.4071C7.08 72.0311 8.02978 72.4825 9.04 72.735L28.1244 77.7595C26.8751 82.5301 27.5711 87.6019 30.0595 91.8591C32.5478 96.1163 36.6247 99.2102 41.3932 100.46C46.1616 101.71 51.2311 101.014 55.4864 98.5242C59.7417 96.0347 62.8342 91.9561 64.0836 87.1854L83.2082 92.2099C85.2193 92.7369 87.3573 92.4447 89.1535 91.3974C90.9497 90.3501 92.2576 88.6331 92.7906 86.6227L98.8172 63.9321C96.4055 63.3618 94.1321 62.3146 92.1309 60.8522C90.1297 59.3897 88.4411 57.5416 87.1645 55.4165C85.8879 53.2914 85.0491 50.9323 84.6974 48.4781C84.3458 46.0238 84.4884 43.524 85.1168 41.1257C85.7453 38.7274 86.8469 36.4791 88.3568 34.5131C89.8668 32.5471 91.7545 30.9031 93.909 29.6779C96.0635 28.4527 98.4412 27.6711 100.902 27.379C103.363 27.0868 105.858 27.2901 108.239 27.9769H108.219Z" fill="#FFA43D"/>
<path d="M225.618 138.817C223.888 134.144 220.99 129.993 217.201 126.758C212.802 122.537 207.84 118.518 205.329 112.951C200.668 102.661 204.063 90.2802 204.063 79.4072C204.063 63.148 200.045 46.0648 189.88 33.182C178.209 18.0884 159.204 12.5615 141.225 9.6875C134.254 10.5316 124.672 10.7326 120.312 17.2443C118.866 19.3948 117.078 37.3423 118.303 37.3423C113.375 37.3423 108.649 39.3009 105.164 42.7873C101.679 46.2737 99.7212 51.0023 99.7212 55.9328C99.7212 60.8634 101.679 65.592 105.164 69.0784C108.649 72.5648 113.375 74.5234 118.303 74.5234V97.9777C118.298 100.055 117.471 102.045 116.003 103.514C114.535 104.983 112.545 105.811 110.469 105.816H90.8018C90.6431 110.643 88.6148 115.22 85.1454 118.579C81.676 121.937 77.0373 123.815 72.2095 123.815C67.3817 123.815 62.743 121.937 59.2736 118.579C55.8042 115.22 53.7759 110.643 53.6172 105.816C47.229 105.816 32.102 101.796 27.8834 106.74C18.4014 117.955 33.4882 141.228 39.2938 150.956C47.1486 163.999 58.981 173.868 71.5566 182.168C78.3466 186.509 88.0496 191.071 90.621 198.97C93.7347 208.476 89.8777 222.545 88.15 232.051L83.0274 260.49C81.9024 266.76 111.795 269.473 115.17 269.775C127.785 270.88 139.497 271.945 152.153 268.81C156.132 267.833 159.861 266.032 163.102 263.524C158.541 251.787 154.664 234.322 155.367 221.741C156.774 195.835 198.197 219.409 204.846 199.854C206.313 195.513 203.139 188.298 207.237 185.122C208.663 184.017 210.692 183.535 211.496 181.907C211.788 181.157 211.849 180.336 211.67 179.552C211.491 178.767 211.08 178.054 210.491 177.505C209.304 176.447 207.945 175.597 206.474 174.993C201.855 172.621 197.405 169.935 193.155 166.954C197.907 166.705 202.641 166.196 207.337 165.426C210.29 164.944 218.808 163.256 217.382 158.673C216.806 157.604 216.176 156.564 215.493 155.558C214.148 152.644 216.639 149.348 219.351 147.64C223.388 145.047 227.245 144.243 225.618 138.817Z" fill="#54124B"/>
<path d="M111.875 200.579C110.226 195.265 108.024 190.139 105.306 185.284C95.2615 167.457 72.9628 156.062 55.7667 146.354C40.4188 137.692 24.6892 127.563 16.734 111.826C5.56542 134.876 3.66728 161.336 11.4313 185.746C19.1953 210.155 36.029 230.652 58.4586 243.005C74.5297 251.848 90.179 258.039 100.404 274.057C100.665 274.459 100.987 274.921 101.469 274.981C101.951 275.042 102.473 274.599 102.815 274.197C107.317 268.229 110.637 261.455 112.598 254.24C114.491 245.851 115.548 237.294 115.752 228.696C115.998 219.175 114.688 209.677 111.875 200.579Z" fill="#ED2860"/>
<path d="M84.3733 226.966C81.6566 224.459 78.6799 222.249 75.494 220.374C63.8023 213.46 47.1687 214.345 34.0507 214.546C22.3388 214.686 9.94399 214.124 0.100433 207.732C1.37736 224.705 9.11577 240.539 21.7197 251.971C34.3237 263.403 50.8321 269.56 67.8402 269.172C80.0341 268.89 91.083 267.162 102.293 272.99C102.424 273.086 102.575 273.151 102.735 273.182C102.894 273.213 103.059 273.21 103.217 273.171C103.373 273.077 103.502 272.944 103.594 272.786C103.685 272.628 103.735 272.449 103.739 272.267C104.338 267.335 103.983 262.333 102.694 257.535C100.985 252.086 98.7373 246.821 95.9847 241.819C92.9442 236.271 89.0226 231.255 84.3733 226.966Z" fill="#FFA43D"/>
<path d="M108.219 27.9769L112.237 12.3608C112.763 10.3514 112.47 8.21508 111.423 6.4213C110.376 4.62751 108.66 3.32296 106.652 2.79423C84.9652 -2.90024 61.9058 0.25157 42.5406 11.5571C23.1753 22.8627 9.08837 41.3971 3.37496 63.088C3.10362 64.0938 3.0354 65.1435 3.17428 66.176C3.31316 67.2084 3.65635 68.2028 4.18381 69.101C4.71126 69.9992 5.41239 70.7832 6.24621 71.4071C7.08003 72.0311 8.02981 72.4825 9.04003 72.735L28.1245 77.7595C26.8751 82.5301 27.5711 87.6019 30.0595 91.8591C32.5479 96.1163 36.6247 99.2102 41.3932 100.46C46.1617 101.71 51.2311 101.014 55.4864 98.5242C59.7417 96.0347 62.8342 91.9561 64.0836 87.1854L83.2082 92.2099C85.2194 92.7369 87.3573 92.4447 89.1535 91.3974C90.9497 90.3501 92.2576 88.6331 92.7906 86.6227L98.8173 63.9321C96.4055 63.3618 94.1321 62.3146 92.1309 60.8522C90.1297 59.3897 88.4411 57.5416 87.1645 55.4165C85.8879 53.2914 85.0491 50.9323 84.6975 48.4781C84.3458 46.0238 84.4884 43.524 85.1168 41.1257C85.7453 38.7274 86.8469 36.4791 88.3568 34.5131C89.8668 32.5471 91.7546 30.9031 93.9091 29.6779C96.0636 28.4527 98.4413 27.6711 100.902 27.379C103.363 27.0868 105.858 27.2901 108.239 27.9769H108.219Z" fill="#FFA43D"/>
<path d="M225.618 138.817C223.888 134.144 220.99 129.993 217.201 126.758C212.802 122.537 207.84 118.518 205.329 112.951C200.668 102.661 204.063 90.2802 204.063 79.4072C204.063 63.148 200.045 46.0648 189.88 33.182C178.209 18.0884 159.204 12.5615 141.225 9.6875C134.254 10.5316 124.672 10.7326 120.312 17.2443C118.866 19.3948 117.078 37.3423 118.303 37.3423C113.375 37.3423 108.649 39.3009 105.164 42.7873C101.679 46.2737 99.7213 51.0023 99.7213 55.9328C99.7213 60.8634 101.679 65.592 105.164 69.0784C108.649 72.5648 113.375 74.5234 118.303 74.5234V97.9777C118.298 100.055 117.471 102.045 116.003 103.514C114.535 104.983 112.545 105.811 110.469 105.816H90.8018C90.6432 110.643 88.6148 115.22 85.1454 118.579C81.676 121.937 77.0373 123.815 72.2095 123.815C67.3817 123.815 62.743 121.937 59.2736 118.579C55.8042 115.22 53.7759 110.643 53.6173 105.816C47.229 105.816 32.1021 101.796 27.8834 106.74C18.4014 117.955 33.4882 141.228 39.2939 150.956C47.1486 163.999 58.981 173.868 71.5566 182.168C78.3467 186.509 88.0496 191.071 90.621 198.97C93.7348 208.476 89.8777 222.545 88.1501 232.051L83.0274 260.49C81.9024 266.76 111.795 269.473 115.17 269.775C127.785 270.88 139.497 271.945 152.153 268.81C156.132 267.833 159.861 266.032 163.102 263.524C158.542 251.787 154.664 234.322 155.367 221.741C156.774 195.835 198.197 219.409 204.846 199.854C206.313 195.513 203.139 188.298 207.237 185.122C208.663 184.017 210.692 183.535 211.496 181.907C211.788 181.157 211.849 180.336 211.67 179.552C211.491 178.767 211.08 178.054 210.491 177.505C209.304 176.447 207.945 175.597 206.474 174.993C201.855 172.621 197.405 169.935 193.155 166.954C197.907 166.705 202.641 166.196 207.337 165.426C210.29 164.944 218.808 163.256 217.382 158.673C216.806 157.604 216.176 156.564 215.494 155.558C214.148 152.644 216.639 149.348 219.351 147.64C223.388 145.047 227.246 144.243 225.618 138.817Z" fill="#54124B"/>
<path d="M111.875 200.579C110.226 195.265 108.024 190.139 105.306 185.284C95.2615 167.457 72.9628 156.062 55.7668 146.354C40.4188 137.692 24.6892 127.563 16.734 111.826C5.56545 134.876 3.66731 161.336 11.4313 185.746C19.1953 210.155 36.029 230.652 58.4587 243.005C74.5298 251.848 90.179 258.039 100.404 274.057C100.665 274.459 100.987 274.921 101.469 274.981C101.951 275.042 102.473 274.599 102.815 274.197C107.317 268.229 110.637 261.455 112.598 254.24C114.491 245.851 115.548 237.294 115.752 228.696C115.998 219.175 114.688 209.677 111.875 200.579Z" fill="#ED2860"/>
<path d="M84.3733 226.966C81.6566 224.459 78.68 222.249 75.4941 220.374C63.8023 213.46 47.1687 214.345 34.0507 214.546C22.3389 214.686 9.94402 214.124 0.100464 207.732C1.37739 224.705 9.1158 240.539 21.7198 251.971C34.3237 263.403 50.8321 269.56 67.8402 269.172C80.0341 268.89 91.083 267.162 102.293 272.99C102.424 273.086 102.575 273.151 102.735 273.182C102.894 273.213 103.059 273.21 103.217 273.171C103.373 273.077 103.502 272.944 103.594 272.786C103.685 272.628 103.735 272.449 103.739 272.267C104.338 267.335 103.983 262.333 102.694 257.535C100.985 252.086 98.7373 246.821 95.9847 241.819C92.9442 236.271 89.0226 231.255 84.3733 226.966Z" fill="#FFA43D"/>
</g>
<defs>
<clipPath id="clip0_902_33">
<rect width="226" height="275" fill="white"/>
</clipPath>
</defs>
</svg>
