<svg width="623" height="403" viewBox="0 0 623 403" fill="none" xmlns="http://www.w3.org/2000/svg">
<path d="M20.7189 292.905V360H6.85891V292.905H20.7189ZM60.8289 292.905V360H47.0214V292.905H60.8289ZM14.7864 331.335V319.837H52.2714V331.335H14.7864ZM97.5395 361.26C88.7195 361.26 82.157 359.23 77.852 355.17C73.547 351.11 71.3945 345.23 71.3945 337.53V330.81C71.3945 323.18 73.407 317.317 77.432 313.222C81.457 309.127 87.302 307.08 94.967 307.08C100.147 307.08 104.47 307.99 107.935 309.81C111.4 311.63 113.99 314.22 115.705 317.58C117.455 320.905 118.33 324.895 118.33 329.55V331.387C118.33 332.647 118.26 333.942 118.12 335.272C118.015 336.567 117.857 337.792 117.647 338.947H105.467C105.572 337.022 105.625 335.202 105.625 333.488C105.66 331.737 105.677 330.162 105.677 328.762C105.677 326.347 105.292 324.3 104.522 322.62C103.752 320.905 102.58 319.61 101.005 318.735C99.4295 317.86 97.417 317.422 94.967 317.422C91.362 317.422 88.702 318.42 86.987 320.415C85.272 322.41 84.4145 325.245 84.4145 328.92V333.697L84.467 335.22V339.262C84.467 340.872 84.712 342.36 85.202 343.725C85.727 345.09 86.5845 346.28 87.7745 347.295C88.9645 348.275 90.5395 349.045 92.4995 349.605C94.4945 350.165 96.9795 350.445 99.9545 350.445C103.175 350.445 106.237 350.095 109.142 349.395C112.082 348.66 114.865 347.68 117.49 346.455L116.335 357.06C113.99 358.355 111.225 359.37 108.04 360.105C104.89 360.875 101.39 361.26 97.5395 361.26ZM114.917 338.947H78.5345V330.022H114.917V338.947ZM170.58 360H157.298L157.77 347.4L157.403 346.245V330.127L157.35 327.817C157.35 324.457 156.423 321.99 154.568 320.415C152.748 318.84 149.755 318.052 145.59 318.052C142.055 318.052 138.73 318.525 135.615 319.47C132.535 320.38 129.683 321.447 127.058 322.672L128.213 311.962C129.753 311.157 131.503 310.405 133.463 309.705C135.458 308.97 137.68 308.375 140.13 307.92C142.58 307.465 145.223 307.238 148.058 307.238C152.258 307.238 155.81 307.745 158.715 308.76C161.62 309.74 163.93 311.157 165.645 313.012C167.395 314.867 168.655 317.09 169.425 319.68C170.195 322.235 170.58 325.07 170.58 328.185V360ZM140.445 361.208C135.335 361.208 131.433 359.93 128.738 357.375C126.078 354.82 124.748 351.18 124.748 346.455V344.985C124.748 339.98 126.288 336.287 129.368 333.907C132.448 331.492 137.33 329.83 144.015 328.92L158.61 326.925L159.398 335.587L145.958 337.53C143.018 337.915 140.918 338.615 139.658 339.63C138.433 340.645 137.82 342.132 137.82 344.092V344.617C137.82 346.542 138.415 348.047 139.605 349.132C140.83 350.182 142.738 350.707 145.328 350.707C147.638 350.707 149.615 350.34 151.26 349.605C152.905 348.87 154.253 347.907 155.303 346.717C156.388 345.492 157.158 344.127 157.613 342.622L159.503 349.29H157.193C156.633 351.495 155.723 353.507 154.463 355.327C153.238 357.112 151.505 358.547 149.265 359.632C147.025 360.683 144.085 361.208 140.445 361.208ZM195.216 360H181.723V290.595H195.216V360ZM226.998 361.103C222.623 361.103 219.123 360.455 216.498 359.16C213.908 357.83 212.035 355.835 210.88 353.175C209.725 350.515 209.148 347.242 209.148 343.357V313.327H222.483V341.362C222.483 344.162 223.113 346.227 224.373 347.557C225.668 348.852 227.925 349.5 231.145 349.5C233.035 349.5 234.855 349.307 236.605 348.922C238.355 348.502 239.965 347.96 241.435 347.295L240.28 358.53C238.53 359.335 236.518 359.965 234.243 360.42C232.003 360.875 229.588 361.103 226.998 361.103ZM239.808 319.522H201.693V308.917H240.963L239.808 319.522ZM222.115 309.915H209.305L209.253 296.265L222.64 294.9L222.115 309.915ZM296.179 360H282.739V329.077C282.739 326.907 282.442 325.035 281.847 323.46C281.287 321.885 280.342 320.66 279.012 319.785C277.682 318.91 275.862 318.472 273.552 318.472C271.522 318.472 269.754 318.84 268.249 319.575C266.744 320.31 265.502 321.307 264.522 322.567C263.577 323.792 262.877 325.192 262.422 326.767L259.692 319.417H262.894C263.489 317.142 264.434 315.095 265.729 313.275C267.024 311.455 268.792 310.02 271.032 308.97C273.272 307.885 276.054 307.342 279.379 307.342C283.334 307.342 286.537 308.095 288.987 309.6C291.437 311.07 293.239 313.275 294.394 316.215C295.584 319.155 296.179 322.795 296.179 327.135V360ZM262.632 360H249.192V290.595H262.579V306.45L262.317 322.462L262.632 323.46V360ZM328.329 361.365C325.214 361.365 322.291 361.138 319.561 360.683C316.866 360.228 314.416 359.667 312.211 359.002C310.041 358.302 308.169 357.602 306.594 356.902L305.386 343.882C308.116 345.317 311.354 346.612 315.099 347.767C318.844 348.887 322.834 349.447 327.069 349.447C331.549 349.447 334.786 348.8 336.781 347.505C338.776 346.21 339.774 344.215 339.774 341.52V340.942C339.774 339.192 339.336 337.757 338.461 336.637C337.621 335.482 336.204 334.467 334.209 333.592C332.214 332.717 329.501 331.825 326.071 330.915C321.241 329.585 317.269 328.08 314.154 326.4C311.074 324.685 308.799 322.567 307.329 320.047C305.859 317.492 305.124 314.29 305.124 310.44V309.81C305.124 303.93 307.101 299.415 311.056 296.265C315.046 293.115 320.926 291.54 328.696 291.54C333.526 291.54 337.674 291.977 341.139 292.852C344.604 293.727 347.509 294.742 349.854 295.897L351.061 308.025C348.436 306.625 345.426 305.47 342.031 304.56C338.671 303.615 334.996 303.142 331.006 303.142C328.031 303.142 325.669 303.422 323.919 303.982C322.204 304.542 320.961 305.365 320.191 306.45C319.456 307.535 319.089 308.847 319.089 310.387V310.545C319.089 312.12 319.474 313.485 320.244 314.64C321.049 315.795 322.466 316.862 324.496 317.842C326.526 318.787 329.414 319.767 333.159 320.782C337.919 322.112 341.804 323.547 344.814 325.087C347.859 326.627 350.116 328.622 351.586 331.073C353.056 333.522 353.791 336.76 353.791 340.785V341.73C353.791 348.205 351.674 353.105 347.439 356.43C343.239 359.72 336.869 361.365 328.329 361.365ZM392.82 361.208C389.74 361.208 387.133 360.718 384.998 359.737C382.863 358.722 381.13 357.305 379.8 355.485C378.505 353.665 377.578 351.53 377.018 349.08H373.185L376.598 338.79C376.668 341.24 377.158 343.305 378.068 344.985C379.013 346.665 380.308 347.925 381.953 348.765C383.633 349.605 385.593 350.025 387.833 350.025C391.228 350.025 393.818 349.045 395.603 347.085C397.388 345.09 398.28 342.15 398.28 338.265V329.812C398.28 325.962 397.405 323.057 395.655 321.097C393.905 319.137 391.315 318.157 387.885 318.157C385.925 318.157 384.158 318.542 382.583 319.312C381.008 320.047 379.695 321.045 378.645 322.305C377.595 323.565 376.843 325.017 376.388 326.662L373.238 319.417H376.965C377.525 317.177 378.418 315.147 379.643 313.327C380.903 311.472 382.635 310.02 384.84 308.97C387.08 307.885 389.898 307.342 393.293 307.342C399.348 307.342 403.95 309.302 407.1 313.222C410.25 317.107 411.825 322.865 411.825 330.495V337.635C411.825 345.335 410.233 351.197 407.048 355.222C403.898 359.212 399.155 361.208 392.82 361.208ZM376.808 378.06H363.42V308.497H376.86L376.335 321.57L376.598 323.932V344.565L376.44 346.98L376.808 361.103V378.06ZM468.752 360H455.312V329.077C455.312 326.907 455.015 325.035 454.42 323.46C453.86 321.885 452.915 320.66 451.585 319.785C450.255 318.91 448.435 318.472 446.125 318.472C444.095 318.472 442.327 318.84 440.822 319.575C439.317 320.31 438.075 321.307 437.095 322.567C436.15 323.792 435.45 325.192 434.995 326.767L432.265 319.417H435.467C436.062 317.142 437.007 315.095 438.302 313.275C439.597 311.455 441.365 310.02 443.605 308.97C445.845 307.885 448.627 307.342 451.952 307.342C455.907 307.342 459.11 308.095 461.56 309.6C464.01 311.07 465.812 313.275 466.967 316.215C468.157 319.155 468.752 322.795 468.752 327.135V360ZM435.205 360H421.765V290.595H435.152V306.45L434.89 322.462L435.205 323.46V360ZM504.209 361.26C495.389 361.26 488.827 359.23 484.522 355.17C480.217 351.11 478.064 345.23 478.064 337.53V330.81C478.064 323.18 480.077 317.317 484.102 313.222C488.127 309.127 493.972 307.08 501.637 307.08C506.817 307.08 511.139 307.99 514.604 309.81C518.069 311.63 520.659 314.22 522.374 317.58C524.124 320.905 524.999 324.895 524.999 329.55V331.387C524.999 332.647 524.929 333.942 524.789 335.272C524.684 336.567 524.527 337.792 524.317 338.947H512.137C512.242 337.022 512.294 335.202 512.294 333.488C512.329 331.737 512.347 330.162 512.347 328.762C512.347 326.347 511.962 324.3 511.192 322.62C510.422 320.905 509.249 319.61 507.674 318.735C506.099 317.86 504.087 317.422 501.637 317.422C498.032 317.422 495.372 318.42 493.657 320.415C491.942 322.41 491.084 325.245 491.084 328.92V333.697L491.137 335.22V339.262C491.137 340.872 491.382 342.36 491.872 343.725C492.397 345.09 493.254 346.28 494.444 347.295C495.634 348.275 497.209 349.045 499.169 349.605C501.164 350.165 503.649 350.445 506.624 350.445C509.844 350.445 512.907 350.095 515.812 349.395C518.752 348.66 521.534 347.68 524.159 346.455L523.004 357.06C520.659 358.355 517.894 359.37 514.709 360.105C511.559 360.875 508.059 361.26 504.209 361.26ZM521.587 338.947H485.204V330.022H521.587V338.947ZM547.528 330.075L544.115 321.097H547.37C548.315 316.932 550.03 313.66 552.515 311.28C555 308.9 558.448 307.71 562.858 307.71C563.768 307.71 564.59 307.78 565.325 307.92C566.06 308.025 566.725 308.165 567.32 308.34L568.055 321.78C567.285 321.535 566.393 321.36 565.378 321.255C564.363 321.115 563.295 321.045 562.175 321.045C558.605 321.045 555.56 321.832 553.04 323.407C550.555 324.982 548.718 327.205 547.528 330.075ZM547.895 360H534.455V308.497H547.265L546.688 324.3L547.895 324.772V360ZM598.443 361.26C589.623 361.26 583.06 359.23 578.755 355.17C574.45 351.11 572.298 345.23 572.298 337.53V330.81C572.298 323.18 574.31 317.317 578.335 313.222C582.36 309.127 588.205 307.08 595.87 307.08C601.05 307.08 605.373 307.99 608.838 309.81C612.303 311.63 614.893 314.22 616.608 317.58C618.358 320.905 619.233 324.895 619.233 329.55V331.387C619.233 332.647 619.163 333.942 619.023 335.272C618.918 336.567 618.76 337.792 618.55 338.947H606.37C606.475 337.022 606.528 335.202 606.528 333.488C606.563 331.737 606.58 330.162 606.58 328.762C606.58 326.347 606.195 324.3 605.425 322.62C604.655 320.905 603.483 319.61 601.908 318.735C600.333 317.86 598.32 317.422 595.87 317.422C592.265 317.422 589.605 318.42 587.89 320.415C586.175 322.41 585.318 325.245 585.318 328.92V333.697L585.37 335.22V339.262C585.37 340.872 585.615 342.36 586.105 343.725C586.63 345.09 587.488 346.28 588.678 347.295C589.868 348.275 591.443 349.045 593.403 349.605C595.398 350.165 597.883 350.445 600.858 350.445C604.078 350.445 607.14 350.095 610.045 349.395C612.985 348.66 615.768 347.68 618.393 346.455L617.238 357.06C614.893 358.355 612.128 359.37 608.943 360.105C605.793 360.875 602.293 361.26 598.443 361.26ZM615.82 338.947H579.438V330.022H615.82V338.947Z" fill="white"/>
<g clip-path="url(#clip0_902_46)">
<path d="M306.219 27.9769L310.237 12.3608C310.763 10.3514 310.47 8.21508 309.423 6.4213C308.376 4.62751 306.66 3.32296 304.652 2.79423C282.965 -2.90024 259.906 0.25157 240.541 11.5571C221.175 22.8627 207.088 41.3971 201.375 63.088C201.104 64.0938 201.035 65.1435 201.174 66.176C201.313 67.2084 201.656 68.2028 202.184 69.101C202.711 69.9992 203.412 70.7832 204.246 71.4071C205.08 72.0311 206.03 72.4825 207.04 72.735L226.124 77.7595C224.875 82.5301 225.571 87.6019 228.059 91.8591C230.548 96.1163 234.625 99.2102 239.393 100.46C244.162 101.71 249.231 101.014 253.486 98.5242C257.742 96.0347 260.834 91.9561 262.084 87.1854L281.208 92.2099C283.219 92.7369 285.357 92.4447 287.153 91.3974C288.95 90.3501 290.258 88.6331 290.791 86.6227L296.817 63.9321C294.405 63.3618 292.132 62.3146 290.131 60.8522C288.13 59.3897 286.441 57.5416 285.165 55.4165C283.888 53.2914 283.049 50.9323 282.697 48.4781C282.346 46.0238 282.488 43.524 283.117 41.1257C283.745 38.7274 284.847 36.4791 286.357 34.5131C287.867 32.5471 289.755 30.9031 291.909 29.6779C294.064 28.4527 296.441 27.6711 298.902 27.379C301.363 27.0868 303.858 27.2901 306.239 27.9769H306.219Z" fill="#FFA43D"/>
<path d="M423.618 138.817C421.888 134.144 418.99 129.993 415.201 126.758C410.802 122.537 405.84 118.518 403.329 112.951C398.668 102.661 402.063 90.2802 402.063 79.4072C402.063 63.148 398.045 46.0648 387.88 33.182C376.209 18.0884 357.204 12.5615 339.225 9.6875C332.254 10.5316 322.672 10.7326 318.312 17.2443C316.866 19.3948 315.078 37.3423 316.303 37.3423C311.375 37.3423 306.649 39.3009 303.164 42.7873C299.679 46.2737 297.721 51.0023 297.721 55.9328C297.721 60.8634 299.679 65.592 303.164 69.0784C306.649 72.5648 311.375 74.5234 316.303 74.5234V97.9777C316.298 100.055 315.471 102.045 314.003 103.514C312.535 104.983 310.545 105.811 308.469 105.816H288.802C288.643 110.643 286.615 115.22 283.145 118.579C279.676 121.937 275.037 123.815 270.21 123.815C265.382 123.815 260.743 121.937 257.274 118.579C253.804 115.22 251.776 110.643 251.617 105.816C245.229 105.816 230.102 101.796 225.883 106.74C216.401 117.955 231.488 141.228 237.294 150.956C245.149 163.999 256.981 173.868 269.557 182.168C276.347 186.509 286.05 191.071 288.621 198.97C291.735 208.476 287.878 222.545 286.15 232.051L281.027 260.49C279.902 266.76 309.795 269.473 313.17 269.775C325.785 270.88 337.497 271.945 350.153 268.81C354.132 267.833 357.861 266.032 361.102 263.524C356.542 251.787 352.664 234.322 353.367 221.741C354.774 195.835 396.197 219.409 402.846 199.854C404.313 195.513 401.139 188.298 405.237 185.122C406.663 184.017 408.692 183.535 409.496 181.907C409.788 181.157 409.849 180.336 409.67 179.552C409.491 178.767 409.08 178.054 408.491 177.505C407.304 176.447 405.945 175.597 404.474 174.993C399.855 172.621 395.405 169.935 391.155 166.954C395.907 166.705 400.641 166.196 405.337 165.426C408.29 164.944 416.808 163.256 415.382 158.673C414.806 157.604 414.176 156.564 413.494 155.558C412.148 152.644 414.639 149.348 417.351 147.64C421.388 145.047 425.246 144.243 423.618 138.817Z" fill="#54124B"/>
<path d="M309.875 200.579C308.226 195.265 306.024 190.139 303.306 185.284C293.262 167.457 270.963 156.062 253.767 146.354C238.419 137.692 222.689 127.563 214.734 111.826C203.565 134.876 201.667 161.336 209.431 185.746C217.195 210.155 234.029 230.652 256.459 243.005C272.53 251.848 288.179 258.039 298.404 274.057C298.665 274.459 298.987 274.921 299.469 274.981C299.951 275.042 300.473 274.599 300.815 274.197C305.317 268.229 308.637 261.455 310.598 254.24C312.492 245.851 313.548 237.294 313.752 228.696C313.998 219.175 312.688 209.677 309.875 200.579Z" fill="#ED2860"/>
<path d="M282.373 226.966C279.657 224.459 276.68 222.249 273.494 220.374C261.802 213.46 245.169 214.345 232.051 214.546C220.339 214.686 207.944 214.124 198.1 207.732C199.377 224.705 207.116 240.539 219.72 251.971C232.324 263.403 248.832 269.56 265.84 269.172C278.034 268.89 289.083 267.162 300.293 272.99C300.424 273.086 300.575 273.151 300.735 273.182C300.894 273.213 301.059 273.21 301.217 273.171C301.373 273.077 301.502 272.944 301.594 272.786C301.685 272.628 301.735 272.449 301.739 272.267C302.338 267.335 301.983 262.333 300.694 257.535C298.985 252.086 296.737 246.821 293.985 241.819C290.944 236.271 287.023 231.255 282.373 226.966Z" fill="#FFA43D"/>
<path d="M306.219 27.9769L310.237 12.3608C310.763 10.3514 310.47 8.21508 309.423 6.4213C308.376 4.62751 306.66 3.32296 304.652 2.79423C282.965 -2.90024 259.906 0.25157 240.541 11.5571C221.175 22.8627 207.088 41.3971 201.375 63.088C201.104 64.0938 201.035 65.1435 201.174 66.176C201.313 67.2084 201.656 68.2028 202.184 69.101C202.711 69.9992 203.412 70.7832 204.246 71.4071C205.08 72.0311 206.03 72.4825 207.04 72.735L226.124 77.7595C224.875 82.5301 225.571 87.6019 228.059 91.8591C230.548 96.1163 234.625 99.2102 239.393 100.46C244.162 101.71 249.231 101.014 253.486 98.5242C257.742 96.0347 260.834 91.9561 262.084 87.1854L281.208 92.2099C283.219 92.7369 285.357 92.4447 287.153 91.3974C288.95 90.3501 290.258 88.6331 290.791 86.6227L296.817 63.9321C294.405 63.3618 292.132 62.3146 290.131 60.8522C288.13 59.3897 286.441 57.5416 285.165 55.4165C283.888 53.2914 283.049 50.9323 282.697 48.4781C282.346 46.0238 282.488 43.524 283.117 41.1257C283.745 38.7274 284.847 36.4791 286.357 34.5131C287.867 32.5471 289.755 30.9031 291.909 29.6779C294.064 28.4527 296.441 27.6711 298.902 27.379C301.363 27.0868 303.858 27.2901 306.239 27.9769H306.219Z" fill="#FFA43D"/>
<path d="M423.618 138.817C421.888 134.144 418.99 129.993 415.201 126.758C410.802 122.537 405.84 118.518 403.329 112.951C398.668 102.661 402.063 90.2802 402.063 79.4072C402.063 63.148 398.045 46.0648 387.88 33.182C376.209 18.0884 357.204 12.5615 339.225 9.6875C332.254 10.5316 322.672 10.7326 318.312 17.2443C316.866 19.3948 315.078 37.3423 316.303 37.3423C311.375 37.3423 306.649 39.3009 303.164 42.7873C299.679 46.2737 297.721 51.0023 297.721 55.9328C297.721 60.8634 299.679 65.592 303.164 69.0784C306.649 72.5648 311.375 74.5234 316.303 74.5234V97.9777C316.298 100.055 315.471 102.045 314.003 103.514C312.535 104.983 310.545 105.811 308.469 105.816H288.802C288.643 110.643 286.615 115.22 283.145 118.579C279.676 121.937 275.037 123.815 270.21 123.815C265.382 123.815 260.743 121.937 257.274 118.579C253.804 115.22 251.776 110.643 251.617 105.816C245.229 105.816 230.102 101.796 225.883 106.74C216.401 117.955 231.488 141.228 237.294 150.956C245.149 163.999 256.981 173.868 269.557 182.168C276.347 186.509 286.05 191.071 288.621 198.97C291.735 208.476 287.878 222.545 286.15 232.051L281.027 260.49C279.902 266.76 309.795 269.473 313.17 269.775C325.785 270.88 337.497 271.945 350.153 268.81C354.132 267.833 357.861 266.032 361.102 263.524C356.542 251.787 352.664 234.322 353.367 221.741C354.774 195.835 396.197 219.409 402.846 199.854C404.313 195.513 401.139 188.298 405.237 185.122C406.663 184.017 408.692 183.535 409.496 181.907C409.788 181.157 409.849 180.336 409.67 179.552C409.491 178.767 409.08 178.054 408.491 177.505C407.304 176.447 405.945 175.597 404.474 174.993C399.855 172.621 395.405 169.935 391.155 166.954C395.907 166.705 400.641 166.196 405.337 165.426C408.29 164.944 416.808 163.256 415.382 158.673C414.806 157.604 414.176 156.564 413.494 155.558C412.148 152.644 414.639 149.348 417.351 147.64C421.388 145.047 425.246 144.243 423.618 138.817Z" fill="#54124B"/>
<path d="M309.875 200.579C308.226 195.265 306.024 190.139 303.306 185.284C293.262 167.457 270.963 156.062 253.767 146.354C238.419 137.692 222.689 127.563 214.734 111.826C203.565 134.876 201.667 161.336 209.431 185.746C217.195 210.155 234.029 230.652 256.459 243.005C272.53 251.848 288.179 258.039 298.404 274.057C298.665 274.459 298.987 274.921 299.469 274.981C299.951 275.042 300.473 274.599 300.815 274.197C305.317 268.229 308.637 261.455 310.598 254.24C312.492 245.851 313.548 237.294 313.752 228.696C313.998 219.175 312.688 209.677 309.875 200.579Z" fill="#ED2860"/>
<path d="M282.373 226.966C279.657 224.459 276.68 222.249 273.494 220.374C261.802 213.46 245.169 214.345 232.051 214.546C220.339 214.686 207.944 214.124 198.1 207.732C199.377 224.705 207.116 240.539 219.72 251.971C232.324 263.403 248.832 269.56 265.84 269.172C278.034 268.89 289.083 267.162 300.293 272.99C300.424 273.086 300.575 273.151 300.735 273.182C300.894 273.213 301.059 273.21 301.217 273.171C301.373 273.077 301.502 272.944 301.594 272.786C301.685 272.628 301.735 272.449 301.739 272.267C302.338 267.335 301.983 262.333 300.694 257.535C298.985 252.086 296.737 246.821 293.985 241.819C290.944 236.271 287.023 231.255 282.373 226.966Z" fill="#FFA43D"/>
</g>
<defs>
<clipPath id="clip0_902_46">
<rect width="226" height="275" fill="white" transform="translate(198)"/>
</clipPath>
</defs>
</svg>
