<svg width="525" height="134" viewBox="0 0 525 134" fill="none" xmlns="http://www.w3.org/2000/svg">
<path d="M30.273 48.104V89H21.825V48.104H30.273ZM54.721 48.104V89H46.305V48.104H54.721ZM26.657 71.528V64.52H49.505V71.528H26.657ZM77.097 89.768C71.721 89.768 67.721 88.5307 65.097 86.056C62.473 83.5813 61.161 79.9973 61.161 75.304V71.208C61.161 66.5573 62.3876 62.984 64.841 60.488C67.2943 57.992 70.857 56.744 75.529 56.744C78.6863 56.744 81.321 57.2987 83.433 58.408C85.545 59.5173 87.1236 61.096 88.169 63.144C89.2356 65.1707 89.769 67.6027 89.769 70.44V71.56C89.769 72.328 89.7263 73.1173 89.641 73.928C89.577 74.7173 89.481 75.464 89.353 76.168H81.929C81.993 74.9947 82.025 73.8853 82.025 72.84C82.0463 71.7733 82.057 70.8133 82.057 69.96C82.057 68.488 81.8223 67.24 81.353 66.216C80.8836 65.1707 80.169 64.3813 79.209 63.848C78.249 63.3147 77.0223 63.048 75.529 63.048C73.3316 63.048 71.7103 63.656 70.665 64.872C69.6196 66.088 69.097 67.816 69.097 70.056V72.968L69.129 73.896V76.36C69.129 77.3413 69.2783 78.248 69.577 79.08C69.897 79.912 70.4196 80.6373 71.145 81.256C71.8703 81.8533 72.8303 82.3227 74.025 82.664C75.241 83.0053 76.7556 83.176 78.569 83.176C80.5316 83.176 82.3983 82.9627 84.169 82.536C85.961 82.088 87.657 81.4907 89.257 80.744L88.553 87.208C87.1236 87.9973 85.4383 88.616 83.497 89.064C81.577 89.5333 79.4436 89.768 77.097 89.768ZM87.689 76.168H65.513V70.728H87.689V76.168ZM121.617 89H113.521L113.809 81.32L113.585 80.616V70.792L113.553 69.384C113.553 67.336 112.988 65.832 111.857 64.872C110.748 63.912 108.924 63.432 106.385 63.432C104.23 63.432 102.204 63.72 100.305 64.296C98.4276 64.8507 96.689 65.5013 95.089 66.248L95.793 59.72C96.7316 59.2293 97.7983 58.7707 98.993 58.344C100.209 57.896 101.564 57.5333 103.057 57.256C104.55 56.9787 106.161 56.84 107.889 56.84C110.449 56.84 112.614 57.1493 114.385 57.768C116.156 58.3653 117.564 59.2293 118.609 60.36C119.676 61.4907 120.444 62.8453 120.913 64.424C121.382 65.9813 121.617 67.7093 121.617 69.608V89ZM103.249 89.736C100.134 89.736 97.7556 88.9573 96.113 87.4C94.4916 85.8427 93.681 83.624 93.681 80.744V79.848C93.681 76.7973 94.6196 74.5467 96.497 73.096C98.3743 71.624 101.35 70.6107 105.425 70.056L114.321 68.84L114.801 74.12L106.609 75.304C104.817 75.5387 103.537 75.9653 102.769 76.584C102.022 77.2027 101.649 78.1093 101.649 79.304V79.624C101.649 80.7973 102.012 81.7147 102.737 82.376C103.484 83.016 104.646 83.336 106.225 83.336C107.633 83.336 108.838 83.112 109.841 82.664C110.844 82.216 111.665 81.6293 112.305 80.904C112.966 80.1573 113.436 79.3253 113.713 78.408L114.865 82.472H113.457C113.116 83.816 112.561 85.0427 111.793 86.152C111.046 87.24 109.99 88.1147 108.625 88.776C107.26 89.416 105.468 89.736 103.249 89.736ZM136.633 89H128.409V46.696H136.633V89ZM156.005 89.672C153.338 89.672 151.205 89.2773 149.605 88.488C148.026 87.6773 146.885 86.4613 146.181 84.84C145.477 83.2187 145.125 81.224 145.125 78.856V60.552H153.253V77.64C153.253 79.3467 153.637 80.6053 154.405 81.416C155.194 82.2053 156.57 82.6 158.533 82.6C159.685 82.6 160.794 82.4827 161.861 82.248C162.928 81.992 163.909 81.6613 164.805 81.256L164.101 88.104C163.034 88.5947 161.808 88.9787 160.421 89.256C159.056 89.5333 157.584 89.672 156.005 89.672ZM163.813 64.328H140.581V57.864H164.517L163.813 64.328ZM153.029 58.472H145.221L145.189 50.152L153.349 49.32L153.029 58.472ZM198.172 89H189.98V70.152C189.98 68.8293 189.799 67.688 189.436 66.728C189.095 65.768 188.519 65.0213 187.708 64.488C186.898 63.9547 185.788 63.688 184.38 63.688C183.143 63.688 182.066 63.912 181.148 64.36C180.231 64.808 179.474 65.416 178.876 66.184C178.3 66.9307 177.874 67.784 177.596 68.744L175.932 64.264H177.884C178.247 62.8773 178.823 61.6293 179.612 60.52C180.402 59.4107 181.479 58.536 182.844 57.896C184.21 57.2347 185.906 56.904 187.932 56.904C190.343 56.904 192.295 57.3627 193.788 58.28C195.282 59.176 196.38 60.52 197.084 62.312C197.81 64.104 198.172 66.3227 198.172 68.968V89ZM177.724 89H169.532V46.696H177.692V56.36L177.532 66.12L177.724 66.728V89ZM217.768 89.832C215.87 89.832 214.088 89.6933 212.424 89.416C210.782 89.1387 209.288 88.7973 207.944 88.392C206.622 87.9653 205.48 87.5387 204.52 87.112L203.784 79.176C205.448 80.0507 207.422 80.84 209.704 81.544C211.987 82.2267 214.419 82.568 217 82.568C219.731 82.568 221.704 82.1733 222.92 81.384C224.136 80.5947 224.744 79.3787 224.744 77.736V77.384C224.744 76.3173 224.478 75.4427 223.944 74.76C223.432 74.056 222.568 73.4373 221.352 72.904C220.136 72.3707 218.483 71.8267 216.392 71.272C213.448 70.4613 211.027 69.544 209.128 68.52C207.251 67.4747 205.864 66.184 204.968 64.648C204.072 63.0907 203.624 61.1387 203.624 58.792V58.408C203.624 54.824 204.83 52.072 207.24 50.152C209.672 48.232 213.256 47.272 217.992 47.272C220.936 47.272 223.464 47.5387 225.576 48.072C227.688 48.6053 229.459 49.224 230.888 49.928L231.624 57.32C230.024 56.4667 228.19 55.7627 226.12 55.208C224.072 54.632 221.832 54.344 219.4 54.344C217.587 54.344 216.147 54.5147 215.08 54.856C214.035 55.1973 213.278 55.6987 212.808 56.36C212.36 57.0213 212.136 57.8213 212.136 58.76V58.856C212.136 59.816 212.371 60.648 212.84 61.352C213.331 62.056 214.195 62.7067 215.432 63.304C216.67 63.88 218.43 64.4773 220.712 65.096C223.614 65.9067 225.982 66.7813 227.816 67.72C229.672 68.6587 231.048 69.8747 231.944 71.368C232.84 72.8613 233.288 74.8347 233.288 77.288V77.864C233.288 81.8107 231.998 84.7973 229.416 86.824C226.856 88.8293 222.974 89.832 217.768 89.832ZM257.077 89.736C255.2 89.736 253.611 89.4373 252.309 88.84C251.008 88.2213 249.952 87.3573 249.141 86.248C248.352 85.1387 247.787 83.8373 247.445 82.344H245.109L247.189 76.072C247.232 77.5653 247.531 78.824 248.085 79.848C248.661 80.872 249.451 81.64 250.453 82.152C251.477 82.664 252.672 82.92 254.037 82.92C256.107 82.92 257.685 82.3227 258.773 81.128C259.861 79.912 260.405 78.12 260.405 75.752V70.6C260.405 68.2533 259.872 66.4827 258.805 65.288C257.739 64.0933 256.16 63.496 254.069 63.496C252.875 63.496 251.797 63.7307 250.837 64.2C249.877 64.648 249.077 65.256 248.437 66.024C247.797 66.792 247.339 67.6773 247.061 68.68L245.141 64.264H247.413C247.755 62.8987 248.299 61.6613 249.045 60.552C249.813 59.4213 250.869 58.536 252.213 57.896C253.579 57.2347 255.296 56.904 257.365 56.904C261.056 56.904 263.861 58.0987 265.781 60.488C267.701 62.856 268.661 66.3653 268.661 71.016V75.368C268.661 80.0613 267.691 83.6347 265.749 86.088C263.829 88.52 260.939 89.736 257.077 89.736ZM247.317 100.008H239.157V57.608H247.349L247.029 65.576L247.189 67.016V79.592L247.093 81.064L247.317 89.672V100.008ZM303.36 89H295.168V70.152C295.168 68.8293 294.987 67.688 294.624 66.728C294.283 65.768 293.707 65.0213 292.896 64.488C292.085 63.9547 290.976 63.688 289.568 63.688C288.331 63.688 287.253 63.912 286.336 64.36C285.419 64.808 284.661 65.416 284.064 66.184C283.488 66.9307 283.061 67.784 282.784 68.744L281.12 64.264H283.072C283.435 62.8773 284.011 61.6293 284.8 60.52C285.589 59.4107 286.667 58.536 288.032 57.896C289.397 57.2347 291.093 56.904 293.12 56.904C295.531 56.904 297.483 57.3627 298.976 58.28C300.469 59.176 301.568 60.52 302.272 62.312C302.997 64.104 303.36 66.3227 303.36 68.968V89ZM282.912 89H274.72V46.696H282.88V56.36L282.72 66.12L282.912 66.728V89ZM324.972 89.768C319.596 89.768 315.596 88.5307 312.972 86.056C310.348 83.5813 309.036 79.9973 309.036 75.304V71.208C309.036 66.5573 310.263 62.984 312.716 60.488C315.169 57.992 318.732 56.744 323.404 56.744C326.561 56.744 329.196 57.2987 331.308 58.408C333.42 59.5173 334.999 61.096 336.044 63.144C337.111 65.1707 337.644 67.6027 337.644 70.44V71.56C337.644 72.328 337.601 73.1173 337.516 73.928C337.452 74.7173 337.356 75.464 337.228 76.168H329.804C329.868 74.9947 329.9 73.8853 329.9 72.84C329.921 71.7733 329.932 70.8133 329.932 69.96C329.932 68.488 329.697 67.24 329.228 66.216C328.759 65.1707 328.044 64.3813 327.084 63.848C326.124 63.3147 324.897 63.048 323.404 63.048C321.207 63.048 319.585 63.656 318.54 64.872C317.495 66.088 316.972 67.816 316.972 70.056V72.968L317.004 73.896V76.36C317.004 77.3413 317.153 78.248 317.452 79.08C317.772 79.912 318.295 80.6373 319.02 81.256C319.745 81.8533 320.705 82.3227 321.9 82.664C323.116 83.0053 324.631 83.176 326.444 83.176C328.407 83.176 330.273 82.9627 332.044 82.536C333.836 82.088 335.532 81.4907 337.132 80.744L336.428 87.208C334.999 87.9973 333.313 88.616 331.372 89.064C329.452 89.5333 327.319 89.768 324.972 89.768ZM335.564 76.168H313.388V70.728H335.564V76.168ZM351.375 70.76L349.295 65.288H351.279C351.855 62.7493 352.901 60.7547 354.415 59.304C355.93 57.8533 358.031 57.128 360.719 57.128C361.274 57.128 361.775 57.1707 362.223 57.256C362.671 57.32 363.077 57.4053 363.439 57.512L363.887 65.704C363.418 65.5547 362.874 65.448 362.255 65.384C361.637 65.2987 360.986 65.256 360.303 65.256C358.127 65.256 356.271 65.736 354.735 66.696C353.221 67.656 352.101 69.0107 351.375 70.76ZM351.599 89H343.407V57.608H351.215L350.863 67.24L351.599 67.528V89ZM382.409 89.768C377.033 89.768 373.033 88.5307 370.409 86.056C367.785 83.5813 366.473 79.9973 366.473 75.304V71.208C366.473 66.5573 367.7 62.984 370.153 60.488C372.607 57.992 376.169 56.744 380.841 56.744C383.999 56.744 386.633 57.2987 388.745 58.408C390.857 59.5173 392.436 61.096 393.481 63.144C394.548 65.1707 395.081 67.6027 395.081 70.44V71.56C395.081 72.328 395.039 73.1173 394.953 73.928C394.889 74.7173 394.793 75.464 394.665 76.168H387.241C387.305 74.9947 387.337 73.8853 387.337 72.84C387.359 71.7733 387.369 70.8133 387.369 69.96C387.369 68.488 387.135 67.24 386.665 66.216C386.196 65.1707 385.481 64.3813 384.521 63.848C383.561 63.3147 382.335 63.048 380.841 63.048C378.644 63.048 377.023 63.656 375.977 64.872C374.932 66.088 374.409 67.816 374.409 70.056V72.968L374.441 73.896V76.36C374.441 77.3413 374.591 78.248 374.889 79.08C375.209 79.912 375.732 80.6373 376.457 81.256C377.183 81.8533 378.143 82.3227 379.337 82.664C380.553 83.0053 382.068 83.176 383.881 83.176C385.844 83.176 387.711 82.9627 389.481 82.536C391.273 82.088 392.969 81.4907 394.569 80.744L393.865 87.208C392.436 87.9973 390.751 88.616 388.809 89.064C386.889 89.5333 384.756 89.768 382.409 89.768ZM393.001 76.168H370.825V70.728H393.001V76.168Z" fill="white"/>
<path d="M467.249 13.5459L469.191 5.97906C469.445 5.00536 469.304 3.97022 468.798 3.10104C468.292 2.23186 467.462 1.59974 466.492 1.34354C456.012 -1.41573 444.868 0.111489 435.51 5.58962C426.151 11.0678 419.344 20.0487 416.582 30.559C416.451 31.0463 416.418 31.555 416.485 32.0553C416.553 32.5556 416.718 33.0374 416.973 33.4726C417.228 33.9078 417.567 34.2877 417.97 34.5901C418.373 34.8924 418.832 35.1111 419.32 35.2335L428.543 37.6681C427.939 39.9797 428.275 42.4373 429.478 44.5001C430.681 46.5629 432.651 48.0621 434.955 48.6677C437.259 49.2734 439.709 48.936 441.766 47.7297C443.822 46.5234 445.317 44.5471 445.92 42.2355L455.163 44.6701C456.134 44.9254 457.168 44.7839 458.036 44.2764C458.904 43.7689 459.536 42.9369 459.793 41.9628L462.706 30.968C461.54 30.6917 460.442 30.1843 459.475 29.4756C458.507 28.767 457.691 27.8715 457.074 26.8418C456.458 25.8121 456.052 24.669 455.882 23.4797C455.712 22.2905 455.781 21.0792 456.085 19.9171C456.389 18.755 456.921 17.6656 457.651 16.713C458.38 15.7603 459.293 14.9638 460.334 14.3701C461.375 13.7764 462.524 13.3977 463.713 13.2561C464.903 13.1146 466.108 13.2131 467.259 13.5459H467.249Z" fill="#FFA43D"/>
<path d="M523.983 67.2534C523.147 64.9893 521.747 62.9777 519.916 61.4103C517.79 59.3652 515.392 57.4175 514.178 54.72C511.926 49.7339 513.567 43.7349 513.567 38.4664C513.567 30.588 511.625 22.3103 506.713 16.0679C501.072 8.75428 491.888 6.0762 483.2 4.68359C479.831 5.09261 475.2 5.19 473.093 8.34527C472.394 9.38729 471.53 18.0838 472.123 18.0838C469.741 18.0838 467.457 19.0328 465.773 20.7222C464.089 22.4115 463.143 24.7028 463.143 27.0919C463.143 29.481 464.089 31.7722 465.773 33.4616C467.457 35.1509 469.741 36.1 472.123 36.1V47.4648C472.12 48.4713 471.72 49.4358 471.011 50.1475C470.301 50.8593 469.34 51.2602 468.336 51.2628H458.832C458.756 53.6019 457.775 55.8195 456.099 57.447C454.422 59.0745 452.18 59.9843 449.847 59.9843C447.514 59.9843 445.273 59.0745 443.596 57.447C441.919 55.8195 440.939 53.6019 440.862 51.2628C437.775 51.2628 430.465 49.3151 428.426 51.7108C423.844 57.1449 431.135 68.422 433.941 73.1355C437.736 79.4557 443.455 84.2373 449.532 88.2593C452.813 90.3628 457.502 92.5735 458.745 96.4007C460.25 101.007 458.386 107.824 457.551 112.43L455.075 126.21C454.531 129.249 468.977 130.563 470.608 130.709C476.705 131.245 482.365 131.761 488.481 130.242C490.403 129.768 492.206 128.896 493.772 127.681C491.568 121.993 489.694 113.531 490.034 107.434C490.714 94.8815 510.732 106.305 513.945 96.8292C514.654 94.7257 513.12 91.2296 515.1 89.6909C515.79 89.1553 516.77 88.9216 517.159 88.1327C517.3 87.7694 517.329 87.3718 517.243 86.9916C517.156 86.6113 516.958 86.2659 516.673 86C516.099 85.487 515.443 85.0754 514.732 84.7827C512.5 83.6334 510.349 82.3319 508.295 80.8873C510.591 80.767 512.88 80.5199 515.149 80.1472C516.576 79.9134 520.692 79.0954 520.003 76.875C519.725 76.3566 519.42 75.8528 519.09 75.3656C518.44 73.9535 519.644 72.3564 520.954 71.5286C522.906 70.2723 524.77 69.8828 523.983 67.2534Z" fill="#54124B"/>
<path d="M469.016 97.179C468.219 94.6042 467.155 92.1202 465.841 89.768C460.987 81.13 450.211 75.6083 441.901 70.9046C434.484 66.7073 426.883 61.7991 423.038 54.1738C417.641 65.3428 416.724 78.164 420.476 89.9917C424.228 101.819 432.363 111.751 443.202 117.737C450.969 122.022 458.531 125.021 463.473 132.783C463.599 132.978 463.754 133.202 463.987 133.231C464.22 133.26 464.473 133.046 464.638 132.851C466.813 129.959 468.418 126.677 469.365 123.181C470.28 119.116 470.791 114.969 470.89 110.803C471.008 106.19 470.376 101.588 469.016 97.179Z" fill="#ED2860"/>
<path d="M455.726 109.968C454.413 108.753 452.974 107.682 451.435 106.774C445.784 103.424 437.746 103.852 431.407 103.95C425.747 104.018 419.757 103.745 415 100.648C415.617 108.872 419.357 116.545 425.448 122.084C431.539 127.624 439.516 130.607 447.736 130.419C453.629 130.283 458.968 129.445 464.385 132.269C464.449 132.315 464.522 132.347 464.599 132.362C464.676 132.377 464.755 132.376 464.832 132.357C464.907 132.311 464.97 132.247 465.014 132.17C465.058 132.094 465.082 132.007 465.084 131.919C465.373 129.529 465.202 127.105 464.579 124.78C463.753 122.14 462.667 119.589 461.337 117.165C459.867 114.477 457.972 112.046 455.726 109.968Z" fill="#FFA43D"/>
</svg>
